<?xml version="1.0" standalone="no"?>
<!DOCTYPE svg PUBLIC "-//W3C//DTD SVG 20010904//EN"
 "http://www.w3.org/TR/2001/REC-SVG-20010904/DTD/svg10.dtd">
<svg version="1.0" xmlns="http://www.w3.org/2000/svg"
 width="500.000000pt" height="500.000000pt" viewBox="0 0 500.000000 500.000000"
 preserveAspectRatio="xMidYMid meet">

<g transform="translate(0.000000,500.000000) scale(0.100000,-0.100000)"
fill="#000000" stroke="none">
<path d="M2477 3852 c-8 -20 -54 -118 -102 -217 -48 -99 -107 -220 -130 -270
-23 -49 -73 -153 -110 -230 -192 -399 -225 -468 -221 -473 3 -2 29 1 58 8 29
6 102 19 161 29 60 10 112 22 116 27 7 9 25 49 126 279 31 72 67 153 80 180
12 28 25 60 29 73 4 12 11 22 16 22 5 0 12 -10 16 -22 4 -13 17 -45 29 -73 13
-27 49 -108 80 -180 101 -230 119 -270 126 -279 4 -5 56 -17 116 -27 59 -10
132 -23 161 -29 29 -7 55 -10 58 -7 2 2 -32 80 -77 173 -158 328 -192 400
-239 499 -26 55 -87 181 -135 280 -48 99 -95 199 -105 221 -25 57 -35 60 -53
16z"/>
<path d="M2205 2589 c-118 -16 -201 -31 -255 -46 -352 -100 -616 -257 -880
-522 -117 -118 -288 -317 -279 -325 2 -2 65 34 139 81 158 99 338 192 501 257
111 44 209 77 209 71 0 -2 -39 -83 -86 -181 -81 -169 -113 -234 -271 -564 -36
-74 -78 -163 -93 -197 l-29 -62 87 56 c90 58 270 154 357 189 l50 21 77 174
c42 96 102 233 133 304 32 72 75 169 96 218 21 48 39 89 39 92 0 3 -12 5 -27
5 -16 0 -34 4 -41 8 -17 12 127 42 258 54 166 16 610 4 754 -21 125 -22 153
-31 93 -31 -20 0 -37 -4 -37 -10 0 -5 18 -49 39 -97 21 -49 62 -142 91 -208
29 -66 62 -142 75 -170 12 -27 49 -110 81 -184 l59 -135 50 -20 c89 -37 277
-136 362 -191 l82 -54 -23 52 c-13 29 -55 117 -93 197 -39 80 -96 199 -128
265 -32 66 -81 170 -110 230 -29 61 -69 143 -89 184 -20 41 -36 75 -36 77 0 5
92 -26 192 -65 152 -60 383 -177 528 -269 69 -44 127 -78 129 -76 9 8 -164
210 -279 325 -258 259 -540 429 -860 516 -169 47 -327 63 -584 62 -122 -1
-248 -5 -281 -10z"/>
</g>
</svg>
